# xmcd
#
# Track frame offsets:
#	150
#	14575
#	38075
#	51715
#	73200
#	96377
#	112075
#	128090
#	147040
#	165180
#	182032
#	194815
#	209192
#	229347
#	245847
#	264040
#	285105
#	303537
# Disc length: 4292 seconds
# Revision: 6
# Processed by: cddbd v1.5.2PL0 Copyright (c) Steve Scherf et al.
#
# Submitted via: libkcddb 0.31
#
DISCID=1810c212
DTITLE=John Denver - Greatest Country Hits
DYEAR=1998
DGENRE=Country
TTITLE0=Take Me Home, Country Roads
TTITLE1=Sunshine On My Shoulders
TTITLE2=Annie's Song
TTITLE3=Back Home Again
TTITLE4=Sweet Surrender (Live)
TTITLE5=Thank God I'm A Country Boy (Live)
TTITLE6=I'm Sorry
TTITLE7=Fly Away
TTITLE8=Looking For Space
TTITLE9=Like A Sad Song
TTITLE10=Baby You Look Good To Me Tonight
TTITLE11=How Can I Leave You Again
TTITLE12=What's On Your Mind
TTITLE13=Autograph
TTITLE14=Some Days Are Diamonds (Some Days Are Stone)
TTITLE15=The Cowboy And The Lady
TTITLE16=Wild Montana Skies (with Emmylou Harris)
TTITLE17=Dreamland Express
EXTD=YEAR: 1998
EXTT0=
EXTT1=
EXTT2=
EXTT3=
EXTT4=
EXTT5=
EXTT6=
EXTT7=
EXTT8=
EXTT9=
EXTT10=
EXTT11=
EXTT12=
EXTT13=
EXTT14=
EXTT15=
EXTT16=
EXTT17=
PLAYORDER=
